<svg width="54" height="60" viewBox="0 0 54 60" fill="none" xmlns="http://www.w3.org/2000/svg">
<path d="M54 14.9989V20.9983C54 21.7939 53.6839 22.5569 53.1213 23.1194C52.5587 23.682 51.7956 23.998 51 23.998C46.7849 23.9906 42.6461 22.8732 39 20.7583V40.4965C39.001 43.9599 38.0793 47.3611 36.3298 50.3502C34.5802 53.3394 32.066 55.8087 29.0456 57.5041C26.0253 59.1995 22.6078 60.0599 19.1446 59.9968C15.6814 59.9336 12.2975 58.9493 9.34097 57.1449C6.38441 55.3405 3.96186 52.7813 2.32245 49.7304C0.683048 46.6794 -0.114042 43.2469 0.0131551 39.7858C0.140352 36.3247 1.18724 32.96 3.04617 30.0376C4.9051 27.1152 7.50897 24.7406 10.59 23.1581C11.051 22.9126 11.5682 22.7916 12.0903 22.8073C12.6124 22.8229 13.1214 22.9746 13.5669 23.2473C14.0124 23.52 14.379 23.9043 14.6303 24.3622C14.8817 24.8201 15.0091 25.3356 15 25.8579V33.4171C14.9679 34.1216 14.6674 34.7871 14.16 35.277C13.0826 36.3667 12.3665 37.7614 12.1087 39.2719C11.8509 40.7824 12.064 42.3356 12.7191 43.7209C13.3741 45.1062 14.4394 46.2565 15.7705 47.0159C17.1016 47.7752 18.634 48.1068 20.16 47.9658C22.0763 47.7219 23.8348 46.7784 25.0974 45.3165C26.36 43.8547 27.0377 41.9777 27 40.0465V3.00003C27 2.20446 27.3161 1.44147 27.8787 0.878913C28.4413 0.316358 29.2044 0.000317273 30 0.000317273H36.33C37.0447 -0.0100729 37.7396 0.235032 38.2896 0.691491C38.8396 1.14795 39.2086 1.78577 39.33 2.49008C39.8982 5.16862 41.3655 7.57229 43.4883 9.30202C45.6111 11.0317 48.2617 11.9835 51 11.9992C51.7956 11.9992 52.5587 12.3152 53.1213 12.8778C53.6839 13.4403 54 14.2033 54 14.9989Z" fill="#4C6B84"/>
</svg>
